<?xml version="1.0" standalone="no"?>
<!DOCTYPE svg PUBLIC "-//W3C//DTD SVG 20010904//EN"
 "http://www.w3.org/TR/2001/REC-SVG-20010904/DTD/svg10.dtd">
<svg version="1.0" xmlns="http://www.w3.org/2000/svg"
 width="300.000000pt" height="300.000000pt" viewBox="0 0 300.000000 300.000000"
 preserveAspectRatio="xMidYMid meet">
<metadata>
Created by potrace 1.14, written by Peter Selinger 2001-2017
</metadata>
<g transform="translate(0.000000,300.000000) scale(0.100000,-0.100000)"
fill="#000000" stroke="none">
<path d="M1490 1965 c0 -11 -17 -54 -37 -95 -21 -41 -39 -78 -41 -82 -2 -5 35
-8 82 -8 47 0 86 3 86 8 0 4 -10 23 -21 42 -12 19 -32 62 -45 95 -13 33 -23
51 -24 40z"/>
<path d="M1252 1553 l-43 -68 140 -3 c77 -1 205 -1 285 0 l144 3 -41 67 -42
68 -200 0 -200 0 -43 -67z"/>
<path d="M1126 1314 c-3 -9 -9 -47 -12 -85 l-7 -69 393 0 393 0 -6 59 c-4 32
-11 70 -16 85 l-11 26 -364 0 c-323 0 -365 -2 -370 -16z"/>
<path d="M1160 1002 c0 -16 56 -87 91 -116 19 -16 59 -41 89 -55 48 -23 68
-26 160 -26 93 0 112 3 162 27 79 37 178 133 178 173 0 3 -153 5 -340 5 -187
0 -340 -4 -340 -8z"/>
<path d="M523 630 c-63 -61 -66 -72 -61 -308 3 -158 5 -175 22 -188 27 -19 96
-19 96 1 0 18 12 19 28 3 21 -21 117 -16 149 8 49 36 73 90 73 167 0 81 -25
138 -73 167 -39 24 -106 26 -147 5 l-29 -15 -3 105 -3 105 -52 -50z m173 -231
c29 -32 27 -140 -3 -170 -28 -28 -72 -28 -95 1 -27 33 -25 138 2 168 26 28 71
28 96 1z"/>
<path d="M953 481 c-53 -25 -92 -82 -100 -148 -7 -67 28 -150 79 -181 71 -44
170 -37 230 17 l31 27 -34 22 c-30 19 -35 19 -50 6 -9 -8 -32 -17 -52 -21 -29
-4 -40 -1 -62 21 -44 44 -31 51 98 54 l117 3 0 45 c0 25 -7 61 -16 79 -37 80
-155 116 -241 76z m136 -87 c12 -15 21 -31 21 -35 0 -5 -31 -9 -70 -9 -77 0
-84 7 -45 45 32 33 68 32 94 -1z"/>
<path d="M1328 480 c-61 -33 -92 -82 -96 -155 -3 -48 0 -70 17 -102 53 -105
182 -133 281 -62 l42 31 -33 22 c-33 23 -34 23 -64 5 -16 -11 -40 -19 -51 -19
-29 0 -74 37 -74 61 0 18 8 19 120 19 l120 0 0 43 c0 54 -25 103 -73 141 -49
39 -133 47 -189 16z m117 -66 c8 -4 22 -19 31 -35 l15 -29 -71 0 c-77 0 -85 8
-48 47 22 23 43 28 73 17z"/>
</g>
</svg>
